<svg xmlns="http://www.w3.org/2000/svg"  viewBox="0 0 1440 728" fill="none">
    <path fillRule="evenodd" clipRule="evenodd" d="M1120.79 1.34475C1118.03 2.87597 1115.58 6.70039 1115.53 9.56116C1115.47 12.6714 1118.28 17.0852 1121.16 18.4023C1125.58 20.4211 1128.89 19.8795 1132.16 16.606C1140.19 8.55074 1130.71 -4.17201 1120.79 1.34475ZM930.981 25.0262C925.748 26.5273 921.844 29.6656 919.515 34.2437C913.411 46.2398 921.997 61.2256 934.971 61.2256C942.329 61.2256 948.843 57.238 952.289 50.6224C954.021 47.2991 954.201 39.6804 952.646 35.5649C949.553 27.3797 939.619 22.5469 930.981 25.0262ZM1104.55 45.7231C1103.48 47.4571 1105.88 49.4446 1107.31 48.0101C1108.51 46.8105 1107.76 44.5932 1106.16 44.5932C1105.66 44.5932 1104.93 45.1015 1104.55 45.7231ZM888.081 78.5368C912.175 101.645 943.658 129.664 944.967 129.161C946.296 128.649 956.748 137.577 1024.82 197.352C1031.68 203.384 1038.76 209.54 1040.54 211.033C1042.31 212.526 1043.69 214.402 1043.6 215.201C1043.43 216.692 1048.13 220.902 1093.72 260.115C1108.26 272.621 1120.15 283.251 1120.15 283.735C1120.15 284.219 1108.72 294.747 1094.75 307.128C1080.78 319.511 1068 330.879 1066.34 332.391C1064.69 333.904 1063.72 334.439 1064.19 333.581C1064.76 332.547 1064.3 332.672 1062.84 333.953C1061.56 335.081 1058.75 335.988 1056.1 336.131C1051.6 336.374 1050.75 336.895 1042.14 344.703C1040.59 346.105 1039.93 347.49 1040.42 348.285C1041.37 349.833 1036.64 346.376 1031.34 341.649L1027.53 338.259L1038.37 324.745C1051.44 308.443 1064.88 290.961 1064.35 290.961C1064.13 290.961 1057.54 294.018 1049.7 297.754C1030.98 306.67 1024.22 311.37 1018.35 319.558L1013.61 326.159L995.865 310.862C951.08 272.263 864.49 199.916 865.991 202.353C867.906 205.459 911.479 244.706 977.114 302.444C1017.74 338.182 1032.55 351.365 1032.55 351.797C1032.55 352.034 1031.85 351.958 1030.99 351.628C1028.72 350.754 1024.04 352.151 1024.85 353.462C1026.2 355.646 1015.69 347.173 981.942 318.852C929.692 275.008 827.407 193.683 764.541 146C737.414 125.426 737.742 125.622 748.989 136.64C785.689 172.592 821.232 205.854 873.905 253.538C896.957 274.406 927.288 302.006 941.31 314.87C955.331 327.734 970.049 341.166 974.015 344.718L981.227 351.177L959.755 351.215L938.285 351.253L914.137 330.768C900.857 319.502 872.728 295.503 851.63 277.439C816.231 247.13 776.134 213.403 754.691 195.9C747.671 190.17 746.723 189.615 750.026 193.174C760.296 204.236 838.887 276.193 884.078 315.909L905.959 335.141L897.456 343.152L888.954 351.163L870.108 351.208L851.263 351.253L816.714 321.83C769.551 281.664 733.539 251.529 733.158 251.912C732.984 252.087 735.097 255.681 737.853 259.9C740.61 264.119 747.742 275.512 753.702 285.218C761.072 297.217 766.94 305.398 772.036 310.779L779.53 318.694L774.109 316.816C771.127 315.783 767.675 314.923 766.437 314.904C764.74 314.878 764.02 314.04 763.509 311.491C761.962 303.786 761.791 303.679 759.469 308.973C757.401 313.687 756.911 314.082 750.395 316.274C746.607 317.549 741.619 319.904 739.311 321.508C736.717 323.31 734.596 324.11 733.758 323.602C732.557 322.875 679.706 280.487 667.602 270.544L662.937 266.712L667.602 271.391C672.99 276.793 721.326 322.355 726.62 327.022L730.169 330.151L727.808 333.984L725.445 337.815L713.355 326.083C701.341 314.423 686.352 301.591 654.686 275.856C638.689 262.856 638.28 262.599 642.329 268.11C645.966 273.059 651.597 282.449 661.654 300.333C664.019 304.537 665.848 305.885 679.167 313.247C700.264 324.907 705.708 327.75 703.6 326.001C700.642 323.549 704.041 322.98 707.833 325.293C709.654 326.403 711.161 326.782 711.361 326.18C711.553 325.601 713.895 327.442 716.565 330.268C719.235 333.096 721.111 335.719 720.735 336.096C720.358 336.473 721.079 337.052 722.338 337.382C724.998 338.079 724.994 338.055 723.426 344.864C721.934 351.345 721.655 351.429 702.412 351.244C694.386 351.167 668.479 351.138 644.841 351.178L601.863 351.253L609.072 357.894L616.282 364.535L611.616 365.125C609.05 365.449 602.752 365.962 597.62 366.264L588.289 366.814L578.003 359.034L567.717 351.253H557.238C545.679 351.253 541.495 352.78 542.5 356.632C543.073 358.829 543.128 358.857 536.629 353.617L533.699 351.253H241.407H-50.8837L-50.8847 340.078C-50.8868 328.746 -52.1755 319.402 -55.9411 303.435C-57.0867 298.575 -58.2821 289.102 -58.5973 282.385L-59.1696 270.17H-55.2568C-52.9458 270.17 -48.354 268.734 -44.042 266.662C-40.0266 264.732 -35.4471 263.153 -33.865 263.153C-30.2695 263.153 -25.4827 259.676 -25.4827 257.064C-25.4827 254.292 -31.4649 253.825 -35.1465 256.308C-40.8114 260.13 -60.6729 263.558 -59.7502 260.555C-59.5304 259.84 -59.0721 255.824 -58.731 251.63C-58.1194 244.111 -58.1546 243.964 -61.3168 241.002C-65.2057 237.361 -64.9476 234.725 -60.5921 233.594C-57.2816 232.734 -53.5845 228.376 -53.7276 225.503C-53.7721 224.628 -53.3543 222.414 -52.8007 220.584C-51.4674 216.18 -52.9282 213.584 -58.279 210.847C-69.1548 205.284 -77.6201 214.135 -73.2594 226.51L-71.612 231.188L-78.7719 237.99C-85.5421 244.423 -85.9703 245.106 -86.6525 250.58C-87.0495 253.764 -86.9106 261.502 -86.3435 267.775C-85.7463 274.391 -85.6841 281.11 -86.1963 283.772C-87.5399 290.746 -87.3336 302.045 -85.709 310.589C-84.4825 317.034 -84.4711 318.893 -85.6333 322.197C-86.3953 324.361 -87.3461 328.392 -87.7473 331.156C-88.1485 333.919 -89.1946 337.583 -90.0717 339.299C-90.9489 341.014 -92.222 344.288 -92.9021 346.575L-94.138 350.733L-129.471 351.253L-164.805 351.773L-159.576 356.191L-154.349 360.609H-123.87H-93.3915L-93.3956 366.586C-93.3988 370.894 -94.1235 373.992 -95.9876 377.677C-97.4111 380.49 -98.5754 384.116 -98.5754 385.733C-98.5754 388.629 -98.4727 388.679 -92.0955 388.867C-80.2379 389.217 -67.9594 389.22 -70.3232 388.874C-71.6068 388.685 -72.656 387.859 -72.656 387.036C-72.656 386.213 -74.5242 384.791 -76.8072 383.876C-79.0902 382.96 -82.1653 380.772 -83.6416 379.013C-86.0656 376.124 -86.2595 375.257 -85.6499 370.031C-84.4545 359.8 -85.5607 360.508 -71.2864 360.838L-58.6719 361.129L-56.2366 367.886C-54.896 371.602 -53.4943 377.917 -53.12 381.919L-52.4389 389.196L-32.2217 389.238C-17.5182 389.27 -16.105 389.188 -27.0378 388.939L-42.0711 388.597L-37.7923 386.666C-31.9636 384.035 -31.6183 382.983 -35.7437 380.426C-37.6876 379.222 -40.9773 376.35 -43.054 374.046C-46.6329 370.074 -47.5619 368.412 -49.2601 362.948L-49.9869 360.609L106.896 360.613C264.291 360.616 295.921 361.029 291.473 363.019C290.211 363.583 289.179 364.676 289.179 365.446C289.179 366.216 288.801 366.846 288.34 366.846C287.879 366.846 286.665 367.46 285.64 368.21C283.947 369.451 285.047 370.763 297.844 382.763L311.908 395.953H305.639C299.424 395.953 299.307 395.897 292.15 389.519C285.62 383.7 280.885 381.26 280.885 383.713C280.885 384.224 280.461 384.378 279.942 384.056C278.733 383.307 266.37 389.619 266.37 390.986C266.37 391.553 265.675 391.75 264.827 391.424C263.946 391.085 263.39 391.36 263.531 392.067C263.667 392.748 262.653 393.476 261.277 393.683C259.352 393.976 259.113 394.277 260.24 394.991C261.103 395.539 154.795 395.947 1.47351 395.983L-258.757 396.045L-265.379 402.236L-272 408.427L-76.1675 408.451L119.666 408.475L102.041 425.465L84.4156 442.456L163.211 442.63L242.006 442.803L260.468 425.507L278.932 408.21L307.123 408.844C337.764 409.533 348.561 410.24 347.779 411.508C347.503 411.957 349.107 412.618 351.343 412.978C353.58 413.337 356.722 414.172 358.322 414.835C359.924 415.497 361.527 415.983 361.885 415.915C362.242 415.845 364.984 416.687 367.977 417.784C374.431 420.149 376.379 419.485 382.958 412.67L387.057 408.427H457.19C531.458 408.427 543.659 408.82 542.754 411.183C542.102 412.887 542.383 412.908 545.655 411.414C548.978 409.896 553.554 411.035 553.566 413.385C553.572 414.374 554.94 417.569 556.607 420.482C569.023 442.188 598.408 446.044 615.705 428.238C620.284 423.525 621.846 420.606 625.616 409.727C625.924 408.838 628.601 408.427 634.082 408.427C638.507 408.427 641.656 408.819 641.112 409.301C640.57 409.783 634.296 415.267 627.168 421.491C620.04 427.713 602.778 443.128 588.807 455.744C574.837 468.361 540.079 499.453 511.567 524.838C457.287 573.167 429.144 598.596 429.144 599.311C429.144 599.796 450.826 581.423 515.125 526.449C574.971 475.281 585.941 465.947 601.248 453.171C608.376 447.221 615.059 441.634 616.099 440.752C617.49 439.574 617.901 439.515 617.654 440.527C617.447 441.377 619.101 442.445 621.984 443.322C624.55 444.103 627.583 445.192 628.723 445.743C629.863 446.294 632.663 447.296 634.944 447.971C637.225 448.645 640.65 450.09 642.555 451.183C644.46 452.275 646.793 453.3 647.738 453.46C650.188 453.877 657.154 457.353 657.872 458.519C658.207 459.061 659.437 458.656 660.626 457.612C662.104 456.315 662.508 456.212 661.923 457.285C661.454 458.142 662.657 457.4 664.595 455.635C666.534 453.871 674.186 447.11 681.599 440.611C689.011 434.113 699.797 424.447 705.566 419.131L716.055 409.467L729.93 409.5L743.805 409.532L740.695 412.267C734.956 417.311 663.455 484.642 663.455 485.002C663.455 485.196 675.468 474.985 690.152 462.31C716.219 439.808 727.673 429.989 732.919 425.646L735.511 423.5L732.998 426.359C731.615 427.931 730.856 429.218 731.31 429.218C731.764 429.218 731.527 429.955 730.78 430.855C729.066 432.927 736.331 428.808 740.671 425.25L743.756 422.718L744.818 425.239C746.094 428.272 750.298 428.485 755.417 425.776C757.243 424.81 759.178 424.02 759.72 424.02C760.261 424.02 762.481 428.23 764.654 433.376C766.828 438.521 768.89 442.731 769.238 442.731C769.586 442.731 777.903 435.597 787.72 426.879L805.57 411.026L777.539 410.749C761.959 410.596 749.507 410.06 749.507 409.544C749.507 409.032 753.123 405.704 757.542 402.147L765.577 395.68L910.911 396.242L1056.24 396.802L1061.02 392.082C1063.65 389.486 1066.01 387.572 1066.26 387.83C1066.52 388.088 1065.1 389.879 1063.12 391.81C1061.13 393.741 1059.5 395.697 1059.5 396.157C1059.5 396.616 1083.18 397.062 1112.12 397.147C1146.73 397.25 1160.66 397.568 1152.81 398.08C1139.41 398.952 1138.09 399.164 1137.02 400.631C1136.57 401.243 1136.24 401.029 1136.22 400.111C1136.2 398.967 1135.98 398.891 1135.39 399.825C1134.94 400.525 1133.43 401.308 1132.03 401.566C1130.63 401.824 1129.49 402.108 1129.49 402.197C1129.49 402.583 1118.31 404.096 1102.01 405.918C1094.31 406.778 1086.38 407.677 1084.39 407.916C1082.39 408.154 1079.82 408.432 1078.68 408.535C1077.54 408.638 1078.48 409.057 1080.76 409.467C1083.22 409.909 1077.2 410.271 1065.92 410.359L1046.93 410.506L1001.12 456.084C975.923 481.152 947.376 508.845 937.682 517.625C853.519 593.844 764.096 676.553 730.327 709.41C717.848 721.552 717.848 721.944 730.327 711.897C750.109 695.971 785.167 665.317 840.788 615.316C851.932 605.298 881.325 578.881 906.105 556.613C930.885 534.344 956.472 511.188 962.964 505.156C969.626 498.966 989.369 483.321 1008.29 469.239C1026.72 455.518 1051.5 436.818 1063.35 427.683L1084.9 411.076L1092.84 410.531C1097.53 410.21 1100.54 410.376 1100.19 410.939C1099.87 411.461 1100.96 412.974 1102.62 414.3L1105.63 416.71L1102.53 419.678C1100.82 421.311 1087.52 433.669 1072.98 447.142C1058.44 460.614 1038.85 479.203 1029.44 488.45C1009.27 508.267 1007.04 509.515 1064.42 468.846C1085.09 454.197 1106.75 438.852 1112.55 434.746L1123.1 427.28L1129.14 432.041L1135.19 436.801V444.419C1135.19 451.706 1135.04 452.167 1131.82 455.033C1125.78 460.405 1111.19 473.308 1106.76 477.199L1102.42 481.001L1095.22 475.242C1088.88 470.176 1088.45 469.968 1091.67 473.519C1093.67 475.74 1096.37 478.767 1097.65 480.246L1099.98 482.937L1061.7 518.416C1040.65 537.93 1018.11 558.939 1011.61 565.103C1005.12 571.267 993.06 582.6 984.814 590.287C968.379 605.608 935.544 637.529 938.771 635.049C948.798 627.342 1092.26 504.537 1100.69 496.447C1103.1 494.133 1105.27 492.444 1105.5 492.693C1105.85 493.08 1120.35 532.079 1125.57 546.684C1127.42 551.886 1128.45 553.362 1130.3 553.53C1130.99 553.593 1132.37 553.715 1133.37 553.803C1135.05 553.95 1135.19 557.721 1135.45 612.434L1135.72 670.907L1135.97 612.545C1136.25 547.77 1135.72 552.148 1143.1 553.536L1146.59 554.193L1146.76 619.826L1146.93 685.461L1147.75 633.633C1148.2 605.128 1148.76 581.271 1148.99 580.617C1149.22 579.963 1154.72 584.587 1161.22 590.891C1167.71 597.195 1177.92 607.018 1183.91 612.721L1194.78 623.089L1194.45 627.849C1194.18 631.763 1194.61 633.189 1196.86 635.87C1200.01 639.633 1205.51 641.129 1209.49 639.31C1211.93 638.199 1212.72 638.673 1221.08 646.212C1237.18 660.735 1253.17 674.619 1275.67 693.607L1290.19 705.855L1276.71 692.693C1269.29 685.452 1252.4 669.451 1239.17 657.134C1218.87 638.234 1215.26 634.449 1216.1 632.88C1218.02 629.289 1217.2 624.844 1213.94 621.119C1210.06 616.689 1206.13 615.684 1201.04 617.817L1197.22 619.419L1182.53 606.66C1174.45 599.645 1163.53 590.264 1158.26 585.816L1148.67 577.728V565.845V553.961L1157.22 553.995C1169.7 554.044 1178.88 555.479 1185.16 558.364C1188.21 559.763 1196.71 565.777 1204.04 571.728C1223.52 587.547 1228.5 591.465 1228.5 590.988C1228.5 590.203 1180.48 547.112 1164.5 533.563L1148.72 520.176L1148.69 503.766L1148.67 487.356L1161.37 498.497C1197.23 529.957 1197.3 530.022 1196.18 533.222C1193.76 540.201 1202.61 546.677 1207.96 541.83C1209.67 540.279 1210 540.264 1211.15 541.685C1212.53 543.402 1277.8 601.287 1318.18 636.598C1331.86 648.567 1350.18 664.595 1358.87 672.215C1367.57 679.836 1374.68 685.857 1374.68 685.595C1374.68 685.069 1362.07 673.728 1286.56 606.336C1258.33 581.146 1232.94 558.439 1230.13 555.874L1225.02 551.211L1227.28 548.948C1229.97 546.25 1230.02 545.76 1227.92 542.758C1225.78 539.69 1220.72 539.62 1219.11 542.637C1217.96 544.789 1217.88 544.766 1214.38 541.37C1212.43 539.469 1211.03 537.375 1211.28 536.717C1211.53 536.059 1210.86 534.068 1209.78 532.294C1207.79 529.001 1204.86 527.656 1200.85 528.192C1199.2 528.413 1192.62 523.233 1175.97 508.58C1163.52 497.628 1152.27 487.804 1150.97 486.75C1148.64 484.868 1148.61 484.5 1148.89 466.548L1149.18 448.263L1180.81 475.187C1198.2 489.996 1215.6 504.942 1219.48 508.401C1226.24 514.431 1226.46 514.773 1224.76 516.654C1223.79 517.733 1223.5 518.617 1224.13 518.617C1224.75 518.617 1225.55 518.149 1225.91 517.577C1226.95 515.887 1229.83 516.336 1229.16 518.085C1228.84 518.935 1228.95 519.52 1229.42 519.384C1230.22 519.15 1334.73 611.112 1350.31 625.76C1360.95 635.756 1411.47 679.432 1419.86 685.887C1422.9 688.225 1415.17 680.844 1383.69 651.377C1361.71 630.794 1356.03 624.936 1355.48 622.27C1355.1 620.433 1351.13 605.365 1346.65 588.785C1323.48 502.994 1306.99 442.001 1306.5 440.256C1305.66 437.3 1349.23 475.192 1437.67 554.315L1440 556.403V476.697V396.992H1431.73H1423.46L1416.18 390.706C1412.18 387.249 1408.9 384.13 1408.9 383.777C1408.9 383.422 1409.17 383.409 1409.51 383.747C1409.85 384.086 1416.67 382.058 1424.67 379.242C1432.67 376.426 1439.39 374.123 1439.61 374.123C1439.82 374.123 1440 368.977 1440 362.688V351.253H1405.27H1370.53L1333.4 318.248C1312.98 300.095 1287.18 277.307 1276.07 267.606L1255.87 249.969L1273.03 233.312C1282.47 224.15 1296.95 210.103 1305.22 202.095C1333.99 174.231 1373.5 135.204 1377.45 130.745C1380.98 126.752 1380.52 126.999 1373.21 132.983C1368.7 136.683 1338.43 162.533 1305.94 190.427C1273.46 218.321 1246.51 241.008 1246.06 240.844C1243.71 239.983 1203.72 204.306 1204.22 203.508C1204.53 202.99 1205.3 202.881 1205.92 203.264C1206.61 203.69 1206.75 203.475 1206.27 202.711C1205.75 201.866 1205.1 201.795 1204.26 202.494C1203.39 203.22 1201.68 202.461 1198.51 199.945C1196.02 197.975 1193.76 196.364 1193.49 196.364C1192.93 196.364 1193.96 203.656 1194.85 205.982C1195.27 207.079 1193.6 207.958 1188.42 209.364C1184.57 210.409 1180.81 211.263 1180.08 211.263C1179.34 211.263 1178.73 211.653 1178.73 212.13C1178.73 212.606 1178.15 212.88 1177.44 212.736C1176.72 212.594 1176.25 213.037 1176.38 213.723C1176.53 214.508 1174.04 213.978 1169.64 212.288C1165.8 210.814 1159.75 208.639 1156.18 207.453L1149.7 205.295L1149.53 188.615C1149.43 179.441 1149.31 169.414 1149.27 166.332L1149.18 160.73L1153.96 159.514C1159.71 158.05 1166.44 153.282 1170.42 147.852C1185.19 127.7 1171.05 100.139 1146.07 100.399C1123.53 100.634 1108.68 122.594 1117.73 142.326C1121.16 149.814 1124.71 153.882 1130.47 156.947L1135.19 159.458V179.379V199.301L1127.67 196.389C1118.36 192.783 1094.06 183.167 1054.84 167.566C1038.3 160.989 1006.35 148.391 983.829 139.569C951.127 126.759 942.154 122.836 939.248 120.078C935.425 116.451 894.747 82.4911 885.843 75.4931C881.775 72.2955 882.257 72.9504 888.081 78.5368ZM581.042 106.981C581.4 107.562 582.127 107.769 582.658 107.44C584.096 106.549 583.828 105.925 582.007 105.925C581.118 105.925 580.684 106.4 581.042 106.981ZM625.613 117.36C627.84 119.647 629.896 121.518 630.181 121.518C630.466 121.518 628.876 119.647 626.649 117.36C624.422 115.073 622.366 113.202 622.081 113.202C621.796 113.202 623.386 115.073 625.613 117.36ZM631.315 121.907C631.315 122.382 707.039 192.019 713.703 197.673L716.778 200.282L713.703 204.615C707.022 214.029 706.618 212.984 716.982 213.097C729.348 213.232 734.423 212.955 734.73 212.127C734.871 211.748 738.64 211.587 743.104 211.771C747.569 211.954 752.989 211.954 755.15 211.771L759.078 211.437L747.554 202.258L736.029 193.079V182.607V172.134L729.031 182.492C725.182 188.19 721.018 194.227 719.777 195.908L717.521 198.963L714.593 196.29C712.983 194.819 702.801 185.709 691.966 176.042C681.132 166.377 663.053 150.128 651.791 139.934C640.53 129.741 631.315 121.628 631.315 121.907ZM805.104 124.427C804.823 124.883 804.982 125.886 805.457 126.656C806.623 128.549 809.778 127.247 808.993 125.196C808.345 123.504 805.964 123.032 805.104 124.427ZM828.919 129.834C826.871 132.693 824.767 135.032 824.243 135.032C823.72 135.032 822.395 133.797 821.298 132.288L819.304 129.544L818.655 143.932C818.298 151.846 818.121 158.435 818.261 158.575C818.401 158.715 821.884 156.712 826.001 154.125L833.486 149.419V137.028C833.486 130.213 833.296 124.637 833.065 124.637C832.833 124.637 830.968 126.976 828.919 129.834ZM1285.45 128.356C1283.71 130.464 1286.1 131.021 1287.98 128.943C1289.45 127.313 1289.47 127.062 1288.1 127.062C1287.23 127.062 1286.04 127.644 1285.45 128.356ZM1281.38 133.461C1280.68 134.313 1279.72 134.774 1279.26 134.488C1278.8 134.201 1275.75 136.998 1272.49 140.702C1269.22 144.407 1266.22 147.234 1265.82 146.984C1264.84 146.379 1260.29 151.295 1260.01 153.269C1259.88 154.128 1265.1 149.849 1271.61 143.763C1278.12 137.676 1283.45 132.52 1283.45 132.304C1283.45 131.501 1282.62 131.961 1281.38 133.461ZM1279.3 135.357C1279.3 135.536 1277.78 137.057 1275.93 138.736L1272.56 141.789L1275.61 138.41C1278.44 135.262 1279.3 134.554 1279.3 135.357ZM950.196 148.428C949.49 149.573 952.133 151.902 953.07 150.963C953.445 150.586 953.752 149.655 953.752 148.892C953.752 147.344 951.079 146.995 950.196 148.428ZM1265.82 147.845C1265.82 148.031 1264.54 149.317 1262.97 150.704L1260.12 153.224L1262.63 150.365C1264.98 147.693 1265.82 147.029 1265.82 147.845ZM1251.79 161.28L1246.64 166.737L1252.08 161.579C1255.08 158.741 1257.53 156.286 1257.53 156.122C1257.53 155.345 1256.57 156.209 1251.79 161.28ZM1144.26 161.005L1146.59 161.02V182.33C1146.59 194.051 1146.37 203.641 1146.09 203.641C1145.82 203.641 1143.72 202.888 1141.43 201.968L1137.26 200.296V180.017V159.738L1139.59 160.365C1140.88 160.709 1142.98 160.998 1144.26 161.005ZM1239.34 172.715L1235.24 177.133L1239.64 173.023C1242.07 170.763 1244.05 168.775 1244.05 168.605C1244.05 167.819 1243.15 168.606 1239.34 172.715ZM564.083 170.633C562.353 172.367 562.616 175.247 564.575 176C566.504 176.742 569.108 174.952 569.108 172.884C569.108 170.776 565.537 169.175 564.083 170.633ZM1227.41 183.63L1223.83 187.528L1227.72 183.946C1231.34 180.611 1232.09 179.731 1231.29 179.731C1231.12 179.731 1229.37 181.486 1227.41 183.63ZM1218.69 191.125C1217.67 192.245 1216.48 193.064 1216.04 192.944C1215.59 192.824 1215.14 193.193 1215.04 193.765C1214.93 194.337 1214.32 195.506 1213.68 196.364C1213.05 197.221 1214.49 196.074 1216.88 193.814C1219.28 191.554 1221.24 189.565 1221.24 189.396C1221.24 188.657 1220.4 189.227 1218.69 191.125ZM1396.88 227.658C1373.55 248.871 1353.86 266.806 1353.12 267.512C1352.02 268.549 1358.21 274.508 1385.26 298.489C1403.68 314.82 1423.53 332.47 1429.37 337.71L1440 347.239V268.163C1440 224.671 1439.84 189.087 1439.65 189.087C1439.46 189.087 1420.21 206.444 1396.88 227.658ZM987.331 191.203C984.49 192.28 983.65 195.66 985.547 198.375C987.427 201.066 990.214 201.122 992.564 198.518C995.897 194.824 992.032 189.421 987.331 191.203ZM43.9513 205.487C39.406 210.963 35.5492 215.776 35.3802 216.183C35.1148 216.823 38.8462 217.87 48.3876 219.832C51.2989 220.432 51.3393 222.446 48.6468 232.747C47.5261 237.035 46.6013 240.95 46.5909 241.447C46.5816 241.943 48.2487 241.069 50.2963 239.502L54.0204 236.655L56.7762 238.666C58.293 239.772 60.0628 240.992 60.7087 241.377C61.3556 241.762 60.3572 238.457 58.489 234.034C52.6664 220.242 52.3885 221.093 63.4198 218.936C68.641 217.914 73.123 216.869 73.3801 216.612C73.6362 216.354 72.4979 215.085 70.8494 213.79C61.5734 206.504 55.5445 201.019 53.9821 198.443L52.2154 195.529L43.9513 205.487ZM660.345 204.16C660.345 205.018 660.811 205.72 661.381 205.72C661.952 205.72 662.418 205.018 662.418 204.16C662.418 203.303 661.952 202.601 661.381 202.601C660.811 202.601 660.345 203.303 660.345 204.16ZM616.31 207.399C614.415 209.299 614.623 210.817 616.98 212.308C620.605 214.6 623.811 210.046 620.74 206.967C619.092 205.315 618.312 205.392 616.31 207.399ZM1197.92 221.368C1198.86 230.768 1197.51 232.758 1190.9 231.733C1188.49 231.358 1185.53 230.52 1184.33 229.869C1182.69 228.977 1181.8 228.99 1180.71 229.924C1179.91 230.605 1182.97 227.308 1187.52 222.598C1192.07 217.889 1196.1 214.036 1196.49 214.036C1196.87 214.036 1197.51 217.335 1197.92 221.368ZM528.215 228.821C526.049 231.92 526.182 234.012 528.75 237.285C530.141 239.059 531.904 240.024 533.752 240.024C537.135 240.024 541.115 236.194 541.115 232.941C541.115 227.109 531.545 224.053 528.215 228.821ZM598.138 237.945C598.138 238.517 598.605 238.984 599.175 238.984C599.745 238.984 600.212 238.517 600.212 237.945C600.212 237.373 599.745 236.905 599.175 236.905C598.605 236.905 598.138 237.373 598.138 237.945ZM209.463 246.521L209.347 254.577H130.552C79.3675 254.577 51.7571 254.937 51.7571 255.604C51.7571 256.269 79.72 256.727 131.046 256.904L210.335 257.176L210.951 253.018C211.29 250.731 211.12 246.521 210.573 243.662L209.579 238.465L209.463 246.521ZM614.727 256.137C614.727 257.09 615.228 257.701 615.841 257.496C616.454 257.292 616.956 256.679 616.956 256.137C616.956 255.594 616.454 254.982 615.841 254.777C615.228 254.572 614.727 255.183 614.727 256.137ZM1036.37 260.612C1031.65 265.554 1032.83 272.811 1038.87 275.943C1043.05 278.108 1047.35 277.083 1050.66 273.133C1054.03 269.123 1054.01 264.954 1050.6 260.895C1048.38 258.252 1047.15 257.696 1043.53 257.696C1040.09 257.696 1038.56 258.319 1036.37 260.612ZM676.927 261.341C675.779 262.728 675.825 263.267 677.201 264.647C679.424 266.876 682.355 265.638 681.93 262.649C681.525 259.802 678.792 259.088 676.927 261.341ZM612.986 272.446C609.82 273.98 608.145 278.441 609.446 281.87C611.454 287.166 617.429 288.345 621.512 284.251C624.976 280.779 624.897 276.181 621.326 273.365C618.326 270.999 616.407 270.787 612.986 272.446ZM126.405 289.417C126.405 291.982 126.812 294.079 127.31 294.079C128.624 294.079 138.046 289.811 137.636 289.401C137.447 289.211 134.841 288.087 131.848 286.904L126.405 284.754V289.417ZM578.439 290.961C578.439 291.532 578.906 292 579.476 292C580.046 292 580.513 291.532 580.513 290.961C580.513 290.389 580.046 289.921 579.476 289.921C578.906 289.921 578.439 290.389 578.439 290.961ZM130.034 300.855C124.626 303.979 124.187 304.451 126.68 304.461C128.528 304.47 130.92 303.193 133.419 300.864C135.548 298.879 137.058 297.256 136.773 297.257C136.488 297.259 133.455 298.878 130.034 300.855ZM589.326 298.237C588.912 298.909 589.039 299.926 589.61 300.497C590.301 301.191 590.897 301.13 591.399 300.316C591.813 299.645 591.685 298.628 591.115 298.056C590.423 297.363 589.827 297.423 589.326 298.237ZM106.365 302.736C103.695 304.64 101.865 306.585 102.295 307.061C102.725 307.536 102.222 307.616 101.176 307.239C97.9092 306.059 99.7526 308.634 104.927 312.478C110.509 316.622 111.419 315.597 106.52 310.685L103.224 307.38L113 307.746C122.054 308.086 123.135 308.362 127.628 311.491C133.474 315.561 134.248 315.692 131.984 312.228C129.221 308 126.549 307.106 115 306.545C105.184 306.069 104.375 305.884 106.762 304.652C108.949 303.524 112.742 299.277 111.563 299.277C111.374 299.277 109.035 300.834 106.365 302.736ZM128.02 306.652C128.34 307.17 132.383 307.593 137.007 307.593C141.63 307.593 145.218 307.422 144.981 307.213C143.972 306.326 127.483 305.78 128.02 306.652ZM649.336 325.265C658.815 337.284 663.508 342.099 665.132 341.474C665.884 341.185 666.819 341.468 667.21 342.103C667.672 342.852 667.444 342.962 666.565 342.417C665.66 341.857 665.458 341.982 665.959 342.794C666.371 343.463 667.15 343.736 667.69 343.402C668.23 343.067 668.359 342.284 667.975 341.661C667.525 340.932 668.031 340.728 669.403 341.088C674.242 342.356 670.498 338.224 658.204 328.725C651.113 323.246 644.649 318.239 643.839 317.596C643.029 316.954 645.503 320.405 649.336 325.265ZM530.424 318.66C529 320.088 529.738 322.294 531.525 321.949C532.523 321.756 533.34 320.942 533.34 320.14C533.34 318.499 531.511 317.57 530.424 318.66ZM710.243 323.966C711.531 325.614 711.495 325.651 709.851 324.359C708.853 323.574 708.036 322.755 708.036 322.539C708.036 321.684 708.888 322.234 710.243 323.966ZM-66.3918 329.683C-63.8745 335.02 -63.326 337.526 -63.326 343.717L-63.325 351.253H-72.1376C-78.8476 351.253 -80.9502 350.918 -80.9502 349.849C-80.9502 347.35 -78.5656 341.487 -75.7165 336.976C-74.1863 334.556 -72.345 330.463 -71.6244 327.88C-70.9028 325.298 -70.12 323.186 -69.8857 323.186C-69.6504 323.186 -68.0786 326.11 -66.3918 329.683ZM687.301 334.621C686.513 336.098 686.513 337.302 687.301 338.779C688.634 341.278 690.717 341.442 692.93 339.225C694.857 337.291 694.873 337.153 693.485 334.552C692.09 331.938 688.713 331.975 687.301 334.621ZM810.159 347.14L812.232 349.496L809.424 347.683C807.584 346.497 805.615 346.091 803.721 346.506C800.966 347.109 800.719 346.837 798.544 340.818L796.259 334.499L802.172 339.641C805.424 342.469 809.018 345.844 810.159 347.14ZM1185.84 338.102L1189.2 341.582L1172.82 356.681C1163.81 364.984 1154.81 373.187 1152.81 374.908L1149.18 378.037V369.361C1149.18 363.009 1149.6 360.28 1150.74 359.179C1153.5 356.506 1181.24 334.621 1181.87 334.621C1182.2 334.621 1183.99 336.187 1185.84 338.102ZM581.55 338.136C581.55 338.451 582.313 340.312 583.245 342.272C584.596 345.112 584.711 346.493 583.814 349.073C582.803 351.98 582.868 352.214 584.452 351.358C586.594 350.2 591.406 345.152 590.799 344.701C590.558 344.523 588.379 342.844 585.956 340.971C583.533 339.098 581.55 337.821 581.55 338.136ZM434.308 346.599C433.212 347.923 433.276 348.075 434.7 347.528C435.635 347.167 436.401 346.455 436.401 345.944C436.401 344.608 435.801 344.796 434.308 346.599ZM967.23 347.095C967.23 347.667 968.163 348.135 969.304 348.135C970.444 348.135 971.377 347.667 971.377 347.095C971.377 346.523 970.444 346.056 969.304 346.056C968.163 346.056 967.23 346.523 967.23 347.095ZM391.327 361.691C391.694 362.286 393.005 362.489 394.24 362.142C395.669 361.741 396.016 361.842 395.192 362.419C394.246 363.084 394.936 364.284 397.775 366.905C400.341 369.276 400.953 369.594 399.586 367.845C398.451 366.394 399.855 367.596 402.706 370.516C405.557 373.436 407.423 375.067 406.853 374.14C406.283 373.214 407.333 374.118 409.188 376.148C411.043 378.179 412.98 379.738 413.495 379.614C414.009 379.489 415.058 380.19 415.825 381.173C417.034 382.72 417.006 382.819 415.617 381.919C414.734 381.347 415.174 381.905 416.593 383.156C418.013 384.409 419.512 385.225 419.925 384.968C420.337 384.712 422.654 386.728 425.073 389.448C427.493 392.168 428.874 393.574 428.144 392.574C426.993 390.997 427.105 390.755 428.985 390.755C430.178 390.755 432.757 391.657 434.716 392.761C436.675 393.864 439.838 394.959 441.746 395.194C443.653 395.428 433.082 395.695 418.254 395.786L391.296 395.953L372.118 379.223C361.571 370.021 352.785 362.068 352.595 361.551C352.095 360.188 390.486 360.327 391.327 361.691ZM464.044 374.383C472.541 381.959 481.545 389.911 484.053 392.055L488.613 395.953L476.244 395.913L463.876 395.874L446.25 380.797C436.557 372.504 427.469 364.57 426.057 363.164L423.488 360.609H436.041H448.595L464.044 374.383ZM559.259 361.337C567.812 361.711 573.828 362.286 572.626 362.613C570.845 363.098 570.444 364.01 570.453 367.558C570.462 371.173 569.91 372.376 567.187 374.674L563.91 377.438L560.158 375.218C558.095 373.998 556.244 373.161 556.045 373.36C555.847 373.558 556.816 375.39 558.198 377.428L560.711 381.136L558.139 384.631C556.724 386.553 555.041 389.887 554.398 392.04C553.266 395.827 553.075 395.953 548.462 395.953C543.795 395.953 543.278 395.593 523.744 378.778C512.77 369.331 503.791 361.394 503.791 361.139C503.791 360.433 541.719 360.567 559.259 361.337ZM350.349 362.477C350.349 363.711 342.861 370.605 340.693 371.368C339.658 371.732 339.078 372.46 339.401 372.984C339.726 373.51 339.354 373.846 338.575 373.732C337.292 373.543 323.392 362.79 323.392 361.986C323.392 361.8 329.458 361.648 336.871 361.648C344.284 361.648 350.349 362.022 350.349 362.477ZM686.209 365.547C683.694 367.691 675.24 375.176 667.423 382.181C659.606 389.185 652.922 394.448 652.569 393.874C651.973 392.906 625.861 370.897 617.786 364.556L614.208 361.746L652.496 361.697L690.784 361.648L686.209 365.547ZM1145.5 368.475C1144.53 369.644 1143.91 369.714 1142.79 368.782C1141.57 367.766 1141.72 367.169 1143.71 365.034C1146.06 362.51 1146.08 362.508 1146.41 364.728C1146.6 365.955 1146.19 367.642 1145.5 368.475ZM1140.02 370.847C1139.18 371.791 1138.28 373.733 1138.02 375.162C1137.65 377.174 1137.51 376.926 1137.4 374.071C1137.26 370.321 1138.9 367.494 1140.61 368.55C1141.12 368.87 1140.86 369.903 1140.02 370.847ZM279.329 379.32C280.361 380.464 281.439 381.399 281.724 381.399C282.01 381.399 281.398 380.464 280.366 379.32C279.335 378.177 278.256 377.241 277.971 377.241C277.686 377.241 278.298 378.177 279.329 379.32ZM649.513 378.193C649.18 378.734 649.349 379.45 649.889 379.785C650.429 380.12 651.143 379.95 651.477 379.409C651.811 378.867 651.642 378.151 651.102 377.816C650.562 377.481 649.847 377.651 649.513 378.193ZM421.886 388.156C423.226 389.586 424.555 390.755 424.84 390.755C425.125 390.755 424.262 389.586 422.923 388.156C421.583 386.727 420.254 385.558 419.969 385.558C419.684 385.558 420.547 386.727 421.886 388.156ZM808.736 412.231C809.518 413.179 819.69 422.077 831.339 432.005L852.52 450.054L855.703 447.089C857.454 445.459 865.058 438.628 872.601 431.912L886.314 419.699L891.026 423.091C893.617 424.957 895.611 426.791 895.456 427.168C895.301 427.544 873.946 447.887 848.001 472.377C749.094 565.733 679.276 632.97 685.227 629.133C692.178 624.651 826.582 518.8 913.246 449.554C928.319 437.511 941.149 427.814 941.758 428.004C942.367 428.196 942.538 428.023 942.138 427.621C941.236 426.718 949.487 419.666 950.623 420.37C951.074 420.65 952.08 420.065 952.857 419.071C954.164 417.399 954.114 417.379 952.197 418.805C950.145 420.33 950.144 420.321 952.095 418.028C953.608 416.251 954.393 415.982 955.465 416.874C957.173 418.296 957.313 419.225 955.665 418.204C954.917 417.74 954.751 417.919 955.219 418.679C955.632 419.348 956.3 419.69 956.704 419.441C957.108 419.19 958.574 419.844 959.962 420.893L962.485 422.802L957.385 427.497C954.581 430.079 951.843 431.918 951.303 431.584C950.763 431.249 950.608 431.439 950.957 432.006C951.306 432.572 943.213 440.666 932.973 449.99C922.733 459.315 914.355 467.203 914.355 467.52C914.355 467.837 914.861 467.589 915.479 466.969C916.75 465.695 920.575 466.365 920.575 467.863C920.575 468.401 921.159 468.505 921.871 468.095C922.585 467.683 922.833 467.717 922.426 468.17C921.323 469.395 923.603 473.051 924.95 472.217C925.703 471.75 925.883 472.095 925.461 473.197C925.103 474.131 925.458 475.546 926.251 476.341C928.028 478.122 927.561 481.841 925.621 481.367C924.842 481.176 924.55 481.367 924.972 481.792C925.395 482.215 925.226 483.306 924.598 484.217C923.969 485.127 926.189 483.052 929.532 479.603C932.874 476.156 934.676 474.5 933.535 475.922C932.395 477.346 934.027 476.238 937.164 473.462C946.354 465.328 975.883 439.385 977.815 437.75C979.411 436.398 980.406 436.99 987.871 443.749L996.155 451.249L1008.91 439.97C1015.92 433.768 1023.64 427.094 1026.07 425.141C1030.29 421.742 1030.4 421.504 1028.7 419.622C1027.73 418.541 1026.11 417.868 1025.12 418.129C1024.13 418.389 1022.47 417.916 1021.45 417.076C1020.43 416.236 1020.24 415.891 1021.04 416.307C1022.01 416.81 1022.25 416.655 1021.75 415.847C1021.34 415.178 1020.6 414.879 1020.11 415.184C1019.61 415.489 1017.48 414.561 1015.37 413.123L1011.52 410.506H909.418C814.43 410.506 807.412 410.627 808.736 412.231ZM1028.74 411.553C1032.06 411.979 1035.3 412.853 1035.94 413.496C1037.76 415.317 1040.66 414.873 1041.88 412.585C1042.95 410.569 1042.69 410.51 1032.84 410.642C1023.38 410.769 1023.1 410.83 1028.74 411.553ZM1142.23 442.475L1146.69 446.37L1146.38 464.365L1146.07 482.361L1141.67 478.577L1137.26 474.795V464.561V454.328L1141.41 450.769C1143.69 448.812 1145.56 446.865 1145.56 446.443C1145.56 446.021 1143.69 447.158 1141.41 448.969L1137.26 452.262V447.062C1137.26 444.202 1136.98 441.122 1136.63 440.218C1135.62 437.562 1137.47 438.31 1142.23 442.475ZM47.8692 451.198C43.1643 455.839 39.3158 459.935 39.3158 460.302C39.3158 460.668 43.2815 464.925 48.1295 469.76L56.9421 478.55L66.3031 469.217L75.6652 459.884L66.9656 451.308C62.1809 446.59 57.8513 442.739 57.3443 442.747C56.8373 442.755 52.5741 446.559 47.8692 451.198ZM1105.18 445.264C1104.26 446.372 1104.24 447.31 1105.09 448.902C1106.49 451.535 1109.88 451.7 1111.22 449.201C1113.35 445.217 1108.06 441.775 1105.18 445.264ZM1119.98 457.874C1119.12 460.132 1121.31 462.256 1122.88 460.681C1124.21 459.35 1123.39 456.245 1121.71 456.245C1121.1 456.245 1120.33 456.978 1119.98 457.874ZM1050.17 461.009C1050.17 461.915 1050.73 462.471 1051.4 462.244C1053.33 461.602 1053.64 459.364 1051.81 459.364C1050.91 459.364 1050.17 460.104 1050.17 461.009ZM961.051 461.913C959.966 463.224 959.966 463.82 961.051 465.131C963.13 467.643 966.712 466.624 966.712 463.522C966.712 460.42 963.13 459.401 961.051 461.913ZM1135.19 466.248C1135.19 471.646 1135.05 471.988 1133.37 470.718C1131.04 468.949 1128.97 466.466 1128.97 465.443C1128.97 464.411 1133.24 460.403 1134.35 460.403C1134.81 460.403 1135.19 463.033 1135.19 466.248ZM1132.96 474.274C1135.14 476.595 1135.23 477.454 1134.96 492.563L1134.67 508.417L1124.59 499.565C1119.05 494.697 1113.46 489.964 1112.15 489.049L1109.79 487.381L1113.21 484.693C1115.09 483.215 1119.29 479.722 1122.54 476.931C1125.79 474.14 1128.95 471.853 1129.56 471.848C1130.18 471.842 1131.71 472.934 1132.96 474.274ZM208.31 478.595C208.31 479.453 209.01 480.154 209.865 480.154C210.721 480.154 211.421 479.453 211.421 478.595C211.421 477.737 210.721 477.036 209.865 477.036C209.01 477.036 208.31 477.737 208.31 478.595ZM225.59 477.729C224.397 478.925 224.834 480.154 226.454 480.154C227.309 480.154 228.009 479.453 228.009 478.595C228.009 476.971 226.783 476.533 225.59 477.729ZM1146.54 501.654C1146.6 510.412 1146.29 517.565 1145.84 517.549C1145.4 517.534 1143.28 515.882 1141.13 513.879L1137.22 510.236L1136.69 493.546L1136.15 476.855L1141.29 481.294L1146.43 485.731L1146.54 501.654ZM795.74 484.955C795.365 485.936 795.508 487.191 796.059 487.743C797.557 489.245 800.514 487.702 800.114 485.627C799.648 483.194 796.594 482.725 795.74 484.955ZM151.806 488.471C150.942 489.872 265.244 489.872 267.407 488.471C268.421 487.814 248.7 487.457 210.704 487.447C172.967 487.436 152.221 487.797 151.806 488.471ZM506.902 493.668C506.902 494.24 507.368 494.708 507.939 494.708C508.509 494.708 508.975 494.24 508.975 493.668C508.975 493.096 508.509 492.629 507.939 492.629C507.368 492.629 506.902 493.096 506.902 493.668ZM53.416 502.919L54.0826 507.101L44.367 507.445L34.6503 507.79L44.1783 508.005L53.7052 508.222L54.0277 511.649L54.3491 515.076L59.7559 511.279L65.1616 507.481L60.3438 503.953C52.4642 498.184 52.6654 498.214 53.416 502.919ZM745.557 500.685C745.75 501.685 746.594 502.504 747.434 502.504C748.274 502.504 749.118 501.685 749.31 500.685C749.555 499.408 748.995 498.866 747.434 498.866C745.872 498.866 745.313 499.408 745.557 500.685ZM730.845 503.024C730.845 503.596 731.545 504.063 732.401 504.063C733.256 504.063 733.956 503.596 733.956 503.024C733.956 502.452 733.256 501.984 732.401 501.984C731.545 501.984 730.845 502.452 730.845 503.024ZM722.033 520.696C722.385 521.268 722.879 521.735 723.131 521.735C723.383 521.735 723.588 521.268 723.588 520.696C723.588 520.124 723.093 519.656 722.49 519.656C721.887 519.656 721.68 520.124 722.033 520.696ZM713.683 521.826C713.3 522.447 713.486 523.457 714.096 524.069C715.39 525.366 718.756 523.146 717.813 521.618C717.024 520.337 714.522 520.464 713.683 521.826ZM690.618 522.983C688.803 524.803 689.094 526.71 691.376 527.934C692.887 528.745 693.777 528.609 695.003 527.379C696.23 526.149 696.365 525.257 695.557 523.743C694.335 521.455 692.434 521.163 690.618 522.983ZM389.746 530.969C389.746 534.874 390.371 534.964 394.412 531.643C396.393 530.015 396.957 529.068 395.967 529.035C395.111 529.007 393.361 528.701 392.079 528.357C390.025 527.805 389.746 528.117 389.746 530.969ZM122.269 534.919L118.651 536.498L122.269 538.429C127.187 541.054 127.442 540.974 127.442 536.809C127.442 532.745 127.338 532.707 122.269 534.919ZM361.753 536.764V540.169L367.458 538.577C370.595 537.701 372.975 536.799 372.748 536.571C372.521 536.344 369.954 535.528 367.044 534.758L361.753 533.358V536.764ZM1006.63 564.356C1006.63 564.928 1007.09 565.395 1007.66 565.395C1008.23 565.395 1008.7 564.928 1008.7 564.356C1008.7 563.784 1008.23 563.316 1007.66 563.316C1007.09 563.316 1006.63 563.784 1006.63 564.356ZM222.527 571.41L215.545 578.464L219.914 582.585C222.316 584.851 223.664 585.887 222.908 584.887C222.152 583.887 221.882 583.067 222.307 583.067C222.732 583.067 222.499 582.366 221.788 581.508C221.078 580.651 220.672 579.913 220.884 579.869C224.118 579.203 224.996 579.266 225.574 580.203C226.011 580.912 225.733 581.006 224.8 580.462C223.999 579.997 223.706 580.015 224.151 580.505C225.505 581.997 228.217 581.992 227.645 580.499C227.252 579.471 227.813 579.318 229.898 579.887C231.972 580.454 233.108 580.154 234.385 578.698C235.94 576.929 238.363 576.713 244.499 577.796C244.73 577.837 244.03 578.923 242.944 580.209L240.969 582.548L243.34 580.533L245.71 578.518L238.701 571.437C234.848 567.542 231.202 564.356 230.601 564.356C230 564.356 226.367 567.531 222.527 571.41ZM298.08 573.619L295.143 576.692L298.015 579.359C301.551 582.645 301.717 582.646 304.758 579.399L307.222 576.77L304.119 573.659L301.016 570.546L298.08 573.619ZM164.423 576.636C162.209 579.089 162.242 580.259 164.588 582.386C167.049 584.618 167.333 584.573 169.254 581.634C170.763 579.324 170.715 579.015 168.512 576.94C166.226 574.787 166.1 574.777 164.423 576.636ZM220.884 581.768C222.173 583.417 222.137 583.453 220.492 582.161C219.495 581.376 218.678 580.557 218.678 580.342C218.678 579.486 219.529 580.036 220.884 581.768ZM967.702 583.54C964.592 586.658 964.455 590.209 967.306 593.842C970.864 598.379 977.57 597.302 980.535 591.718C981.924 589.103 981.266 586.632 978.3 583.327C975.49 580.197 970.944 580.289 967.702 583.54ZM590.557 595.174C589.22 596.515 589.841 597.492 591.93 597.334C593.078 597.248 593.865 596.721 593.68 596.164C593.237 594.835 591.457 594.27 590.557 595.174ZM474.013 603.078C471.545 606.279 471.347 607.214 473.367 606.129C474.645 605.443 475.96 605.425 477.121 606.076C479.173 607.228 479.357 606.64 477.836 603.789C476.593 601.462 475.427 601.245 474.013 603.078ZM1110.53 659.172L1110.31 672.387L1105.99 673.551C1091.06 677.582 1090.49 699.379 1105.2 703.798L1109.27 705.021L1109.37 712.393C1109.43 716.448 1109.83 722.338 1110.26 725.482C1110.9 730.136 1111.08 728.733 1111.2 717.938L1111.34 704.675L1115.49 703.01C1120.32 701.072 1124.36 696.679 1125.31 692.33C1126.91 685.034 1121.18 675.219 1114.55 673.89L1111.4 673.258L1111.08 659.609L1110.76 645.959L1110.53 659.172Z" fill="#8CAE99"/>
</svg>