<svg width="125" height="20" viewBox="0 0 125 20" fill="none" xmlns="http://www.w3.org/2000/svg">
<path d="M6.896 10.128C8.64533 10.48 9.52 11.3707 9.52 12.8C9.52 14.9333 7.94133 16 4.784 16H1.552V4.8H4.784C7.89867 4.8 9.456 5.76533 9.456 7.696C9.456 9.04 8.60267 9.85067 6.896 10.128ZM3.168 6.32V9.344H4.784C5.11467 9.344 5.37067 9.344 5.552 9.344C5.73333 9.33333 5.96267 9.31733 6.24 9.296C6.528 9.264 6.74667 9.216 6.896 9.152C7.056 9.088 7.216 9.00267 7.376 8.896C7.54667 8.78933 7.66933 8.65067 7.744 8.48C7.81867 8.29867 7.856 8.09067 7.856 7.856C7.856 7.57867 7.78667 7.33867 7.648 7.136C7.52 6.93333 7.36 6.784 7.168 6.688C6.98667 6.58133 6.74133 6.50133 6.432 6.448C6.12267 6.384 5.856 6.34667 5.632 6.336C5.408 6.32533 5.12533 6.32 4.784 6.32H3.168ZM4.352 14.48C5.65333 14.48 6.57067 14.3573 7.104 14.112C7.63733 13.856 7.904 13.4187 7.904 12.8C7.904 12.3947 7.808 12.0587 7.616 11.792C7.424 11.5147 7.14133 11.312 6.768 11.184C6.40533 11.056 6.03733 10.9707 5.664 10.928C5.30133 10.8853 4.864 10.864 4.352 10.864H3.168V14.48H4.352ZM10.5462 16V4.8H12.1623V16H10.5462ZM15.6997 16.208C14.9744 16.208 14.3504 15.9947 13.8277 15.568C13.3051 15.1307 13.0437 14.56 13.0437 13.856C13.0437 12.8853 13.4011 12.1813 14.1157 11.744C14.8304 11.296 15.7797 11.072 16.9637 11.072H18.3077C18.2971 10.688 18.2384 10.3733 18.1318 10.128C18.0251 9.88267 17.8811 9.70667 17.6997 9.6C17.5184 9.49333 17.3424 9.424 17.1718 9.392C17.0011 9.34933 16.7931 9.328 16.5477 9.328C16.1531 9.328 15.7851 9.44533 15.4437 9.68C15.1131 9.904 14.8517 10.1653 14.6597 10.464L13.3637 9.616C14.0677 8.41067 15.1664 7.808 16.6597 7.808C17.6837 7.808 18.4731 8.09067 19.0278 8.656C19.5824 9.22133 19.8597 10.0587 19.8597 11.168V16H18.3077L18.3238 14.608C17.7584 15.6747 16.8837 16.208 15.6997 16.208ZM15.9077 14.688C16.6117 14.688 17.1771 14.5013 17.6037 14.128C18.0411 13.7547 18.2971 13.2213 18.3717 12.528L17.3157 12.512C16.4197 12.512 15.7531 12.6133 15.3157 12.816C14.8784 13.008 14.6597 13.328 14.6597 13.776C14.6597 14.0533 14.7771 14.2773 15.0117 14.448C15.2571 14.608 15.5557 14.688 15.9077 14.688ZM26.4409 4.8H28.0569V16H26.4409V14.816C26.2062 15.232 25.8649 15.568 25.4169 15.824C24.9795 16.0693 24.5262 16.192 24.0569 16.192C22.9795 16.192 22.1582 15.8027 21.5929 15.024C21.0382 14.2453 20.7609 13.2267 20.7609 11.968C20.7609 10.752 21.0382 9.76533 21.5929 9.008C22.1475 8.25067 22.9689 7.872 24.0569 7.872C24.5262 7.872 24.9795 7.98933 25.4169 8.224C25.8649 8.45867 26.2062 8.77333 26.4409 9.168V4.8ZM24.4089 14.672C25.0062 14.672 25.4862 14.432 25.8489 13.952C26.2222 13.4613 26.4089 12.8 26.4089 11.968C26.4089 11.1573 26.2222 10.5173 25.8489 10.048C25.4862 9.568 25.0062 9.328 24.4089 9.328C23.7902 9.328 23.2942 9.56267 22.9209 10.032C22.5582 10.5013 22.3769 11.1467 22.3769 11.968C22.3769 12.8107 22.5582 13.472 22.9209 13.952C23.2942 14.432 23.7902 14.672 24.4089 14.672ZM32.7852 16.192C31.5479 16.192 30.5986 15.7973 29.9372 15.008C29.2759 14.2187 28.9452 13.2107 28.9452 11.984C28.9452 10.8107 29.3026 9.83467 30.0172 9.056C30.7319 8.26667 31.6546 7.872 32.7852 7.872C33.7772 7.872 34.5986 8.208 35.2492 8.88C35.8999 9.54133 36.2252 10.5333 36.2252 11.856V12.752H30.5292C30.5292 13.2747 30.7372 13.728 31.1532 14.112C31.5692 14.4853 32.1132 14.672 32.7852 14.672C33.7772 14.672 34.4759 14.2027 34.8812 13.264L36.3052 14.032C36.0706 14.6293 35.6279 15.1413 34.9772 15.568C34.3372 15.984 33.6066 16.192 32.7852 16.192ZM30.5612 11.312H34.6572C34.6572 10.8747 34.4972 10.448 34.1772 10.032C33.8572 9.60533 33.3719 9.392 32.7212 9.392C32.0066 9.392 31.4679 9.58933 31.1052 9.984C30.7426 10.368 30.5612 10.8107 30.5612 11.312Z" fill="#160C28"/>
<path d="M47.6464 9.64645C47.4512 9.84171 47.4512 10.1583 47.6464 10.3536L50.8284 13.5355C51.0237 13.7308 51.3403 13.7308 51.5355 13.5355C51.7308 13.3403 51.7308 13.0237 51.5355 12.8284L48.7071 10L51.5355 7.17157C51.7308 6.97631 51.7308 6.65973 51.5355 6.46447C51.3403 6.2692 51.0237 6.2692 50.8284 6.46447L47.6464 9.64645ZM64.3536 10.3536C64.5488 10.1583 64.5488 9.84171 64.3536 9.64645L61.1716 6.46447C60.9763 6.2692 60.6597 6.2692 60.4645 6.46447C60.2692 6.65973 60.2692 6.97631 60.4645 7.17157L63.2929 10L60.4645 12.8284C60.2692 13.0237 60.2692 13.3403 60.4645 13.5355C60.6597 13.7308 60.9763 13.7308 61.1716 13.5355L64.3536 10.3536ZM48 10.5H64V9.5H48V10.5Z" fill="#160C28"/>
<path d="M83.456 7.936C83.456 9.6 82.6453 10.6347 81.024 11.04L83.344 16H81.52L79.248 11.232H77.168V16H75.552V4.8H79.264C79.5307 4.8 79.7547 4.80533 79.936 4.816C80.128 4.816 80.3787 4.84267 80.688 4.896C81.008 4.93867 81.28 4.99733 81.504 5.072C81.728 5.14667 81.968 5.264 82.224 5.424C82.4907 5.57333 82.704 5.76 82.864 5.984C83.0347 6.19733 83.1733 6.47467 83.28 6.816C83.3973 7.14667 83.456 7.52 83.456 7.936ZM77.168 6.32V9.712H79.248C79.6213 9.712 79.9413 9.696 80.208 9.664C80.4747 9.62133 80.7413 9.54667 81.008 9.44C81.2853 9.33333 81.4933 9.16267 81.632 8.928C81.7707 8.68267 81.84 8.37867 81.84 8.016C81.84 7.344 81.616 6.896 81.168 6.672C80.72 6.43733 80.08 6.32 79.248 6.32H77.168ZM87.3447 16.192C86.4487 16.192 85.7607 15.9253 85.2807 15.392C84.8007 14.848 84.5607 14.0693 84.5607 13.056V8.064H86.1767V12.576C86.1767 13.4187 86.3047 13.9787 86.5608 14.256C86.8274 14.5333 87.1954 14.672 87.6648 14.672C88.0487 14.672 88.3847 14.592 88.6727 14.432C88.9714 14.272 89.1954 14.08 89.3447 13.856C89.4941 13.632 89.6167 13.3653 89.7127 13.056C89.8087 12.736 89.8674 12.4587 89.8888 12.224C89.9101 11.9787 89.9208 11.7227 89.9208 11.456V8.064H91.5367V16H89.9208V14.128C89.5581 15.504 88.6994 16.192 87.3447 16.192ZM93.0751 16V8.064H94.6591V9.504H94.7071C94.9311 9.01333 95.2778 8.61333 95.7471 8.304C96.2165 7.99467 96.7231 7.84 97.2671 7.84C98.1418 7.84 98.8191 8.144 99.2991 8.752C99.7898 9.36 100.035 10.1707 100.035 11.184V16H98.4191V11.664C98.4191 10.128 97.8911 9.36 96.8351 9.36C96.3018 9.36 95.8645 9.52 95.5231 9.84C95.1925 10.1493 94.9685 10.496 94.8511 10.88C94.7445 11.2533 94.6911 11.6533 94.6911 12.08V16H93.0751ZM101.478 16V8.064H103.062V9.504H103.11C103.334 9.01333 103.681 8.61333 104.15 8.304C104.62 7.99467 105.126 7.84 105.67 7.84C106.545 7.84 107.222 8.144 107.702 8.752C108.193 9.36 108.438 10.1707 108.438 11.184V16H106.822V11.664C106.822 10.128 106.294 9.36 105.238 9.36C104.705 9.36 104.268 9.52 103.926 9.84C103.596 10.1493 103.372 10.496 103.254 10.88C103.148 11.2533 103.094 11.6533 103.094 12.08V16H101.478ZM113.27 16.192C112.032 16.192 111.083 15.7973 110.422 15.008C109.76 14.2187 109.43 13.2107 109.43 11.984C109.43 10.8107 109.787 9.83467 110.502 9.056C111.216 8.26667 112.139 7.872 113.27 7.872C114.262 7.872 115.083 8.208 115.734 8.88C116.384 9.54133 116.71 10.5333 116.71 11.856V12.752H111.014C111.014 13.2747 111.222 13.728 111.638 14.112C112.054 14.4853 112.598 14.672 113.27 14.672C114.262 14.672 114.96 14.2027 115.366 13.264L116.79 14.032C116.555 14.6293 116.112 15.1413 115.462 15.568C114.822 15.984 114.091 16.192 113.27 16.192ZM111.046 11.312H115.142C115.142 10.8747 114.982 10.448 114.662 10.032C114.342 9.60533 113.856 9.392 113.206 9.392C112.491 9.392 111.952 9.58933 111.59 9.984C111.227 10.368 111.046 10.8107 111.046 11.312ZM117.691 16V8.064H119.307V9.552C119.509 9.08267 119.803 8.70933 120.187 8.432C120.581 8.144 121.04 8 121.563 8C122.107 8 122.592 8.128 123.019 8.384L122.507 9.936C122.112 9.65867 121.653 9.52 121.131 9.52C119.915 9.52 119.307 10.5867 119.307 12.72V16H117.691Z" fill="#160C28"/>
</svg>
